<mxfile host="app.diagrams.net" modified="2024-05-27T14:03:35.588Z" agent="Mozilla/5.0 (Macintosh; Intel Mac OS X 10_15_7) AppleWebKit/537.36 (KHTML, like Gecko) Chrome/125.0.0.0 Safari/537.36" etag="_2r6pVPIQ1pikb4nFYCq" version="24.4.9" type="device">
  <diagram name="Page-1" id="IWPXVctCu8cLau_5zce9">
    <mxGraphModel dx="794" dy="481" grid="1" gridSize="10" guides="1" tooltips="1" connect="1" arrows="1" fold="1" page="1" pageScale="1" pageWidth="850" pageHeight="1100" math="0" shadow="0">
      <root>
        <mxCell id="0" />
        <mxCell id="1" parent="0" />
        <mxCell id="I9mzvw8oEykv-9cXbt1d-1" value="" style="rounded=0;whiteSpace=wrap;html=1;" vertex="1" parent="1">
          <mxGeometry x="40" y="120" width="360" height="360" as="geometry" />
        </mxCell>
        <mxCell id="I9mzvw8oEykv-9cXbt1d-2" value="&lt;i&gt;Enter Task To Do&lt;/i&gt;" style="rounded=0;whiteSpace=wrap;html=1;" vertex="1" parent="1">
          <mxGeometry x="70" y="140" width="230" height="30" as="geometry" />
        </mxCell>
        <mxCell id="I9mzvw8oEykv-9cXbt1d-3" value="Submit" style="rounded=0;whiteSpace=wrap;html=1;" vertex="1" parent="1">
          <mxGeometry x="300" y="140" width="70" height="30" as="geometry" />
        </mxCell>
        <mxCell id="I9mzvw8oEykv-9cXbt1d-4" value="" style="rounded=0;whiteSpace=wrap;html=1;" vertex="1" parent="1">
          <mxGeometry x="70" y="190" width="300" height="270" as="geometry" />
        </mxCell>
        <mxCell id="I9mzvw8oEykv-9cXbt1d-5" value="&amp;nbsp; &amp;nbsp;Todo title" style="rounded=0;whiteSpace=wrap;html=1;align=left;" vertex="1" parent="1">
          <mxGeometry x="90" y="210" width="260" height="30" as="geometry" />
        </mxCell>
        <mxCell id="I9mzvw8oEykv-9cXbt1d-6" value="Edit&amp;nbsp; &amp;nbsp; &amp;nbsp;Delete" style="text;html=1;align=center;verticalAlign=middle;whiteSpace=wrap;rounded=0;" vertex="1" parent="1">
          <mxGeometry x="250" y="210" width="100" height="30" as="geometry" />
        </mxCell>
        <mxCell id="I9mzvw8oEykv-9cXbt1d-8" value="Front End (React)" style="rounded=0;whiteSpace=wrap;html=1;fillColor=#f8cecc;strokeColor=#b85450;" vertex="1" parent="1">
          <mxGeometry x="160" y="70" width="120" height="30" as="geometry" />
        </mxCell>
        <mxCell id="I9mzvw8oEykv-9cXbt1d-9" value="" style="rounded=0;whiteSpace=wrap;html=1;" vertex="1" parent="1">
          <mxGeometry x="560" y="120" width="240" height="360" as="geometry" />
        </mxCell>
        <mxCell id="I9mzvw8oEykv-9cXbt1d-10" value="Server (Express.js)" style="rounded=0;whiteSpace=wrap;html=1;fillColor=#ffe6cc;strokeColor=#d79b00;" vertex="1" parent="1">
          <mxGeometry x="620" y="120" width="120" height="30" as="geometry" />
        </mxCell>
        <mxCell id="I9mzvw8oEykv-9cXbt1d-11" value="Read All Todos" style="rounded=0;whiteSpace=wrap;html=1;" vertex="1" parent="1">
          <mxGeometry x="620" y="390" width="120" height="60" as="geometry" />
        </mxCell>
        <mxCell id="I9mzvw8oEykv-9cXbt1d-12" value="UpdateTodo" style="rounded=0;whiteSpace=wrap;html=1;" vertex="1" parent="1">
          <mxGeometry x="620" y="250" width="120" height="60" as="geometry" />
        </mxCell>
        <mxCell id="I9mzvw8oEykv-9cXbt1d-13" value="Delete Todo" style="rounded=0;whiteSpace=wrap;html=1;" vertex="1" parent="1">
          <mxGeometry x="620" y="320" width="120" height="60" as="geometry" />
        </mxCell>
        <mxCell id="I9mzvw8oEykv-9cXbt1d-14" value="Create Todo" style="rounded=0;whiteSpace=wrap;html=1;" vertex="1" parent="1">
          <mxGeometry x="620" y="180" width="120" height="60" as="geometry" />
        </mxCell>
        <mxCell id="I9mzvw8oEykv-9cXbt1d-18" value="" style="endArrow=classic;startArrow=classic;html=1;rounded=0;entryX=0;entryY=0.5;entryDx=0;entryDy=0;exitX=0.25;exitY=0;exitDx=0;exitDy=0;fillColor=#ffe6cc;strokeColor=#76608A;strokeWidth=2;" edge="1" parent="1" source="I9mzvw8oEykv-9cXbt1d-6" target="I9mzvw8oEykv-9cXbt1d-12">
          <mxGeometry width="50" height="50" relative="1" as="geometry">
            <mxPoint x="270" y="210" as="sourcePoint" />
            <mxPoint x="430" y="260" as="targetPoint" />
            <Array as="points">
              <mxPoint x="280" y="190" />
              <mxPoint x="320" y="200" />
            </Array>
          </mxGeometry>
        </mxCell>
        <mxCell id="I9mzvw8oEykv-9cXbt1d-24" value="PUT" style="edgeLabel;html=1;align=center;verticalAlign=middle;resizable=0;points=[];labelBackgroundColor=#76608A;fontColor=#FFFFFF;" vertex="1" connectable="0" parent="I9mzvw8oEykv-9cXbt1d-18">
          <mxGeometry x="0.2152" y="-3" relative="1" as="geometry">
            <mxPoint as="offset" />
          </mxGeometry>
        </mxCell>
        <mxCell id="I9mzvw8oEykv-9cXbt1d-19" value="" style="endArrow=classic;startArrow=classic;html=1;rounded=0;exitX=1;exitY=0.5;exitDx=0;exitDy=0;entryX=0;entryY=0.5;entryDx=0;entryDy=0;fillColor=#ffe6cc;strokeColor=#76608A;strokeWidth=2;" edge="1" parent="1" source="I9mzvw8oEykv-9cXbt1d-6" target="I9mzvw8oEykv-9cXbt1d-13">
          <mxGeometry width="50" height="50" relative="1" as="geometry">
            <mxPoint x="380" y="310" as="sourcePoint" />
            <mxPoint x="430" y="260" as="targetPoint" />
          </mxGeometry>
        </mxCell>
        <mxCell id="I9mzvw8oEykv-9cXbt1d-25" value="DELETE" style="edgeLabel;html=1;align=center;verticalAlign=middle;resizable=0;points=[];fontColor=#FFFFFF;labelBackgroundColor=#76608A;" vertex="1" connectable="0" parent="I9mzvw8oEykv-9cXbt1d-19">
          <mxGeometry x="-0.0277" y="-3" relative="1" as="geometry">
            <mxPoint as="offset" />
          </mxGeometry>
        </mxCell>
        <mxCell id="I9mzvw8oEykv-9cXbt1d-20" value="" style="endArrow=classic;startArrow=classic;html=1;rounded=0;entryX=0;entryY=0.5;entryDx=0;entryDy=0;exitX=1;exitY=0.75;exitDx=0;exitDy=0;strokeWidth=2;fillColor=#ffe6cc;strokeColor=#76608A;" edge="1" parent="1" source="I9mzvw8oEykv-9cXbt1d-4" target="I9mzvw8oEykv-9cXbt1d-11">
          <mxGeometry width="50" height="50" relative="1" as="geometry">
            <mxPoint x="380" y="310" as="sourcePoint" />
            <mxPoint x="430" y="260" as="targetPoint" />
          </mxGeometry>
        </mxCell>
        <mxCell id="I9mzvw8oEykv-9cXbt1d-26" value="GET" style="edgeLabel;html=1;align=center;verticalAlign=middle;resizable=0;points=[];labelBackgroundColor=#76608A;fontColor=#FFFFFF;" vertex="1" connectable="0" parent="I9mzvw8oEykv-9cXbt1d-20">
          <mxGeometry x="-0.2457" y="-3" relative="1" as="geometry">
            <mxPoint as="offset" />
          </mxGeometry>
        </mxCell>
        <mxCell id="I9mzvw8oEykv-9cXbt1d-21" value="" style="endArrow=classic;startArrow=classic;html=1;rounded=0;entryX=0;entryY=0.5;entryDx=0;entryDy=0;exitX=1;exitY=0.5;exitDx=0;exitDy=0;strokeWidth=2;fillColor=#ffe6cc;strokeColor=#76608A;" edge="1" parent="1" source="I9mzvw8oEykv-9cXbt1d-3" target="I9mzvw8oEykv-9cXbt1d-14">
          <mxGeometry width="50" height="50" relative="1" as="geometry">
            <mxPoint x="380" y="310" as="sourcePoint" />
            <mxPoint x="430" y="260" as="targetPoint" />
          </mxGeometry>
        </mxCell>
        <mxCell id="I9mzvw8oEykv-9cXbt1d-23" value="&lt;font color=&quot;#ffffff&quot;&gt;POST&lt;/font&gt;" style="edgeLabel;html=1;align=center;verticalAlign=middle;resizable=0;points=[];fontColor=#000000;labelBorderColor=none;labelBackgroundColor=#76608A;" vertex="1" connectable="0" parent="I9mzvw8oEykv-9cXbt1d-21">
          <mxGeometry x="-0.0839" y="-2" relative="1" as="geometry">
            <mxPoint as="offset" />
          </mxGeometry>
        </mxCell>
        <mxCell id="I9mzvw8oEykv-9cXbt1d-22" value="HTTP" style="rounded=0;whiteSpace=wrap;html=1;fillColor=#76608a;strokeColor=#432D57;fontColor=#ffffff;" vertex="1" parent="1">
          <mxGeometry x="425" y="80" width="120" height="20" as="geometry" />
        </mxCell>
        <mxCell id="I9mzvw8oEykv-9cXbt1d-27" value="" style="shape=cylinder3;whiteSpace=wrap;html=1;boundedLbl=1;backgroundOutline=1;size=15;" vertex="1" parent="1">
          <mxGeometry x="600" y="520" width="160" height="150" as="geometry" />
        </mxCell>
        <mxCell id="I9mzvw8oEykv-9cXbt1d-31" value="" style="endArrow=classic;startArrow=classic;html=1;rounded=0;exitX=0.5;exitY=0;exitDx=0;exitDy=0;exitPerimeter=0;" edge="1" parent="1" source="I9mzvw8oEykv-9cXbt1d-27" target="I9mzvw8oEykv-9cXbt1d-9">
          <mxGeometry width="50" height="50" relative="1" as="geometry">
            <mxPoint x="380" y="490" as="sourcePoint" />
            <mxPoint x="530" y="500" as="targetPoint" />
          </mxGeometry>
        </mxCell>
        <mxCell id="I9mzvw8oEykv-9cXbt1d-32" value="Database&lt;div&gt;(Postgres)&lt;/div&gt;" style="rounded=0;whiteSpace=wrap;html=1;fillColor=#dae8fc;strokeColor=#6c8ebf;" vertex="1" parent="1">
          <mxGeometry x="620" y="580" width="120" height="30" as="geometry" />
        </mxCell>
      </root>
    </mxGraphModel>
  </diagram>
</mxfile>
